<mxfile host="app.diagrams.net" modified="2023-12-01T10:20:53.486Z" agent="Mozilla/5.0 (Macintosh; Intel Mac OS X 10_15_7) AppleWebKit/537.36 (KHTML, like Gecko) Chrome/119.0.0.0 Safari/537.36" etag="bcZgbxm5wbm_v3l9RKGA" version="21.6.9" type="github">
  <diagram name="第 1 页" id="d6OUrBoHoZEwFVML-RoP">
    <mxGraphModel dx="1242" dy="711" grid="1" gridSize="10" guides="1" tooltips="1" connect="1" arrows="1" fold="1" page="1" pageScale="1" pageWidth="827" pageHeight="1169" math="0" shadow="0">
      <root>
        <mxCell id="0" />
        <mxCell id="1" parent="0" />
        <mxCell id="fAzDCmd5BTgE8AqOHtSn-1" value="" style="whiteSpace=wrap;html=1;rounded=1;arcSize=4;" vertex="1" parent="1">
          <mxGeometry x="39" y="10" width="750" height="620" as="geometry" />
        </mxCell>
        <mxCell id="fAzDCmd5BTgE8AqOHtSn-2" value="物料" style="rounded=1;whiteSpace=wrap;html=1;" vertex="1" parent="1">
          <mxGeometry x="90" y="80" width="120" height="50" as="geometry" />
        </mxCell>
        <mxCell id="fAzDCmd5BTgE8AqOHtSn-3" value="埋点模块" style="rounded=1;whiteSpace=wrap;html=1;" vertex="1" parent="1">
          <mxGeometry x="90" y="170" width="120" height="50" as="geometry" />
        </mxCell>
        <mxCell id="fAzDCmd5BTgE8AqOHtSn-4" value="编排" style="rounded=1;whiteSpace=wrap;html=1;" vertex="1" parent="1">
          <mxGeometry x="250" y="170" width="440" height="50" as="geometry" />
        </mxCell>
        <mxCell id="fAzDCmd5BTgE8AqOHtSn-6" value="基座" style="rounded=1;whiteSpace=wrap;html=1;" vertex="1" parent="1">
          <mxGeometry x="90" y="380" width="640" height="50" as="geometry" />
        </mxCell>
        <mxCell id="fAzDCmd5BTgE8AqOHtSn-8" value="react" style="rounded=1;whiteSpace=wrap;html=1;" vertex="1" parent="1">
          <mxGeometry x="100" y="460" width="120" height="50" as="geometry" />
        </mxCell>
        <mxCell id="fAzDCmd5BTgE8AqOHtSn-9" value="&lt;span style=&quot;background-color: rgb(255, 255, 255); color: rgb(16, 18, 20); font-family: &amp;quot;PingFang SC&amp;quot;; font-size: 10.5pt; letter-spacing: 0pt; text-align: left;&quot;&gt;bridge sdk&lt;/span&gt;" style="rounded=1;whiteSpace=wrap;html=1;" vertex="1" parent="1">
          <mxGeometry x="240" y="460" width="120" height="50" as="geometry" />
        </mxCell>
        <mxCell id="fAzDCmd5BTgE8AqOHtSn-10" value="&lt;div style=&quot;text-align: left;&quot;&gt;&lt;font face=&quot;PingFang SC&quot; color=&quot;#101214&quot;&gt;&lt;span style=&quot;font-size: 14px; background-color: rgb(255, 255, 255);&quot;&gt;app container&lt;/span&gt;&lt;/font&gt;&lt;/div&gt;" style="rounded=1;whiteSpace=wrap;html=1;" vertex="1" parent="1">
          <mxGeometry x="380" y="460" width="120" height="50" as="geometry" />
        </mxCell>
        <mxCell id="fAzDCmd5BTgE8AqOHtSn-11" value="&lt;div style=&quot;text-align: left;&quot;&gt;&lt;font face=&quot;PingFang SC&quot; color=&quot;#101214&quot;&gt;&lt;span style=&quot;font-size: 14px; background-color: rgb(255, 255, 255);&quot;&gt;pragram container&lt;/span&gt;&lt;/font&gt;&lt;/div&gt;" style="rounded=1;whiteSpace=wrap;html=1;" vertex="1" parent="1">
          <mxGeometry x="530" y="460" width="130" height="50" as="geometry" />
        </mxCell>
        <mxCell id="fAzDCmd5BTgE8AqOHtSn-12" value="组件面板" style="rounded=1;whiteSpace=wrap;html=1;" vertex="1" parent="1">
          <mxGeometry x="250" y="80" width="120" height="50" as="geometry" />
        </mxCell>
        <mxCell id="fAzDCmd5BTgE8AqOHtSn-14" value="运行时容器" style="rounded=1;whiteSpace=wrap;html=1;" vertex="1" parent="1">
          <mxGeometry x="410" y="80" width="120" height="50" as="geometry" />
        </mxCell>
        <mxCell id="fAzDCmd5BTgE8AqOHtSn-15" value="组件配置" style="rounded=1;whiteSpace=wrap;html=1;" vertex="1" parent="1">
          <mxGeometry x="560" y="80" width="120" height="50" as="geometry" />
        </mxCell>
      </root>
    </mxGraphModel>
  </diagram>
</mxfile>
